<?xml version="1.0" encoding="utf-8"?>
<!-- Generator: Adobe Illustrator 16.0.0, SVG Export Plug-In . SVG Version: 6.00 Build 0)  -->
<!DOCTYPE svg PUBLIC "-//W3C//DTD SVG 1.1//EN" "http://www.w3.org/Graphics/SVG/1.1/DTD/svg11.dtd">
<svg version="1.1" id="Layer_1" xmlns="http://www.w3.org/2000/svg" xmlns:xlink="http://www.w3.org/1999/xlink" x="0px" y="0px"
	 width="512px" height="512px" viewBox="0 0 512 512" enable-background="new 0 0 512 512" xml:space="preserve">
<g>
	<path d="M236.656,254.047C192.938,245.094,160,206.406,160,160c0-35.141,19.094-65.531,47.25-82.266
		c8.969,19.328,27.281,39.078,52.5,53.656c33.063,19.078,68.125,23.781,90.875,14.672C351.313,150.656,352,155.219,352,160
		c0,46.406-32.875,85.094-76.625,94.047C336.813,244.656,384,192.063,384,128C384,57.313,326.688,0,256,0
		c-70.656,0-128,57.313-128,128C128,192.063,175.25,244.656,236.656,254.047z"/>
	<path d="M352,288h-16c0,44.188-35.813,80-80,80s-80-35.813-80-80h-16c-53,0-96,42.969-96,96v96c0,17.688,14.313,32,32,32h320
		c17.688,0,32-14.313,32-32v-96C448,330.969,405.063,288,352,288z"/>
</g>
</svg>
