<?xml version="1.0" encoding="iso-8859-1"?>
<!-- Generator: Adobe Illustrator 17.0.2, SVG Export Plug-In . SVG Version: 6.00 Build 0)  -->
<!DOCTYPE svg PUBLIC "-//W3C//DTD SVG 1.1//EN" "http://www.w3.org/Graphics/SVG/1.1/DTD/svg11.dtd">
<svg version="1.1" id="Capa_1" xmlns="http://www.w3.org/2000/svg" xmlns:xlink="http://www.w3.org/1999/xlink" x="0px" y="0px"
	 width="100px" height="100px" viewBox="0 0 100 100" style="enable-background:new 0 0 100 100;" xml:space="preserve">
<g>
	<path style="fill:#1D1D1B;" d="M4.327,41.274c7.518,6.89,15.458,13.263,24.103,18.685c-2.85,9.677-5.957,19.269-9.286,28.792
		c-0.61,1.745,0.57,2.95,1.98,3.22c0.706,0.43,1.604,0.481,2.522-0.174c8.355-5.967,16.936-11.607,25.386-17.438
		c8.544,6.278,16.896,12.811,25.844,18.517c1.983,1.265,3.85-0.445,3.967-2.265c0.099-0.397,0.115-0.836-0.005-1.321
		c-2.363-9.612-5.14-19.082-9.405-28.015C78.612,55.409,86.037,47.353,94.6,40.66c1.606-1.255,0.943-3.07-0.422-3.936
		c-0.434-0.556-1.104-0.939-2.024-0.939H63.321c-3.855-9.693-7.789-19.353-10.92-29.312c-0.932-2.965-5.202-2.13-5.324,0.472
		c-4.491,9.584-8.613,19.308-11.012,29.634c-10.26-0.065-20.515-0.493-30.776-0.524C2.171,36.046,1.857,40.367,4.327,41.274z
		 M37.391,41.99c0.238,0.001,0.456-0.028,0.661-0.074c1.194,0.173,2.43-0.369,2.75-1.906c1.84-8.829,5.01-17.166,8.656-25.349
		c2.869,8.18,6.147,16.208,9.341,24.27c0.01,0.026,0.025,0.045,0.037,0.07c0.195,1.156,1.049,2.18,2.565,2.18h24.164
		c-6.679,5.802-13.001,12.023-20.669,16.554c-0.569,0.336-0.929,0.778-1.123,1.259c-0.481,0.74-0.629,1.7-0.115,2.702
		c3.73,7.269,6.265,14.973,8.38,22.82c-7.192-4.947-14.096-10.295-21.145-15.45c-0.201-0.147-0.4-0.251-0.598-0.333
		c-0.727-0.507-1.683-0.619-2.665,0.063c-6.907,4.793-13.913,9.44-20.825,14.222c2.57-7.633,4.998-15.311,7.253-23.045
		c0.36-1.235-0.124-2.205-0.923-2.773c-0.183-0.514-0.538-0.99-1.126-1.353c-6.853-4.224-13.219-9.07-19.286-14.31
		C20.946,41.683,29.167,41.965,37.391,41.99z"/>
</g>
</svg>
